<?xml version="1.0" standalone="no"?>
<!DOCTYPE svg PUBLIC "-//W3C//DTD SVG 20010904//EN"
 "http://www.w3.org/TR/2001/REC-SVG-20010904/DTD/svg10.dtd">
<svg version="1.0" xmlns="http://www.w3.org/2000/svg"
 width="256.000000pt" height="256.000000pt" viewBox="0 0 256.000000 256.000000"
 preserveAspectRatio="xMidYMid meet">
<metadata>
Created by potrace 1.11, written by Peter Selinger 2001-2013
</metadata>
<g transform="translate(0.000000,256.000000) scale(0.100000,-0.100000)"
fill="#000000" stroke="none">
<path d="M1679 2295 c-3 -2 -40 -6 -84 -9 -83 -6 -132 -12 -175 -21 -14 -4
-35 -8 -46 -11 -53 -11 -164 -48 -222 -75 -35 -16 -65 -29 -67 -29 -11 0 -160
-93 -163 -101 -2 -5 -8 -9 -14 -9 -8 0 -67 -44 -114 -85 -52 -44 -151 -147
-181 -187 -21 -26 -41 -48 -45 -48 -4 0 -8 -5 -8 -10 0 -11 -34 -62 -57 -87
-15 -17 -135 -253 -128 -253 3 0 -3 -17 -14 -37 -10 -21 -19 -40 -19 -43 0 -3
-5 -23 -10 -44 -6 -22 -9 -43 -6 -47 2 -4 0 -10 -5 -13 -5 -3 -12 -26 -16 -52
-3 -25 -9 -56 -11 -67 -3 -12 -6 -71 -8 -130 -3 -99 -5 -109 -26 -124 -13 -9
-51 -44 -85 -77 -120 -119 -152 -181 -109 -213 23 -17 36 -16 79 1 19 8 35 14
35 12 0 -2 -16 -34 -36 -71 -42 -82 -43 -125 -2 -139 21 -7 38 -4 85 19 75 35
187 75 213 75 12 0 33 -11 47 -24 24 -22 129 -81 145 -81 3 0 10 -3 14 -7 7
-8 103 -24 117 -20 4 1 7 -2 7 -7 0 -4 12 -7 28 -4 15 2 47 6 72 9 82 9 78 8
168 46 15 6 29 12 32 13 22 7 80 40 80 47 0 4 4 8 10 8 14 0 100 92 100 107 0
7 3 13 8 13 8 0 42 72 61 130 13 38 22 101 25 165 1 48 11 50 114 28 37 -8 78
-17 91 -19 13 -3 34 -10 45 -16 12 -6 21 -10 21 -8 0 16 256 -101 289 -132 11
-10 26 -18 33 -18 7 0 13 -4 13 -10 0 -5 6 -10 14 -10 8 0 16 -3 18 -7 2 -5
28 -29 59 -55 31 -26 78 -71 105 -100 27 -28 61 -65 76 -80 39 -41 68 -37 99
15 15 23 34 65 43 93 20 62 35 175 26 200 -4 11 -6 31 -6 47 1 15 -2 27 -7 27
-4 0 -7 6 -5 13 3 13 -31 108 -41 117 -9 7 -32 62 -28 66 2 2 12 -4 23 -14 45
-42 103 -3 97 64 -4 62 -12 104 -23 125 -6 10 -8 19 -5 19 3 0 -5 19 -17 43
-12 23 -21 45 -20 50 1 4 -2 7 -7 7 -5 0 -12 9 -16 20 -8 25 -105 123 -145
146 -40 24 -38 35 5 23 72 -20 103 29 63 101 -39 72 -44 80 -77 117 -65 73
-152 129 -281 180 -23 9 -21 11 35 37 54 25 147 54 230 72 17 3 89 8 160 10
72 2 133 3 137 4 4 0 15 11 23 24 12 19 14 30 6 44 -11 21 -126 84 -231 126
-36 15 -74 31 -85 36 -28 13 -124 41 -160 46 -16 3 -37 8 -45 11 -8 3 -22 7
-30 8 -81 12 -125 17 -182 20 -36 1 -71 5 -76 9 -5 3 -11 4 -13 1z m216 -131
c34 -7 75 -15 91 -18 16 -3 74 -20 129 -38 108 -34 108 -33 -5 -58 -129 -28
-308 -106 -332 -144 -4 -6 -8 -8 -8 -4 0 8 -31 -15 -61 -46 -20 -20 -24 -52
-11 -73 8 -12 34 -19 115 -29 100 -13 202 -63 276 -136 l44 -43 -63 -8 c-73
-9 -133 -39 -149 -73 -15 -34 12 -61 84 -86 33 -11 71 -28 86 -39 15 -10 30
-19 33 -19 4 0 33 -26 65 -57 80 -79 154 -220 104 -197 -10 4 -52 9 -93 11
-55 3 -80 0 -94 -11 -26 -21 -24 -67 4 -85 79 -53 153 -167 176 -272 12 -58
-3 -219 -21 -219 -2 0 -32 27 -67 61 -82 79 -197 166 -290 217 -66 37 -238
109 -278 117 -8 2 -15 4 -15 5 0 1 -8 3 -19 5 -10 2 -39 8 -65 14 -25 6 -62
13 -81 15 -19 3 -35 5 -35 6 0 1 -22 3 -50 5 -27 2 -54 5 -60 6 -34 10 -83
-42 -66 -70 9 -13 6 -140 -3 -181 -11 -48 -48 -140 -62 -151 -8 -6 -14 -16
-14 -21 0 -5 -14 -21 -31 -36 -85 -73 -214 -124 -314 -123 -52 1 -73 3 -120
15 -34 8 -108 50 -157 88 -42 33 -65 44 -85 42 -28 -2 -109 -24 -148 -40 l-20
-7 20 23 c11 12 43 40 71 61 43 32 51 42 47 63 -8 41 -27 49 -93 43 -33 -3
-60 -2 -60 1 0 4 25 25 55 46 30 22 57 47 61 55 4 9 8 72 9 141 3 117 6 157
20 220 4 14 8 36 11 50 3 13 10 30 15 36 5 7 9 16 8 20 -1 5 1 17 4 27 8 19
14 38 16 49 2 12 104 213 110 218 3 3 28 38 55 78 44 66 190 223 257 278 46
38 154 109 194 129 22 11 42 23 45 26 5 5 40 20 50 21 3 0 21 8 41 18 51 26
205 70 262 74 27 3 51 7 54 9 10 11 299 3 358 -9z"/>
</g>
</svg>
